<?xml version="1.0" ?><svg enable-background="new 0 0 64 64" id="Layer_1" version="1.1" viewBox="0 0 64 64" xml:space="preserve" xmlns="http://www.w3.org/2000/svg" xmlns:xlink="http://www.w3.org/1999/xlink"><g><path d="M47.6601563,52.2744141L32,54.9707031l-15.6601563-2.6962891   c-1.0986328-0.1953125-2.1240234,0.5429688-2.3105469,1.6308594c-0.1875,1.0888672,0.5429688,2.1230469,1.6308594,2.3105469   l16,2.7548828C31.7724609,58.9902344,31.8867188,59,32,59s0.2275391-0.0097656,0.3398438-0.0292969l16-2.7548828   c1.0878906-0.1875,1.8183594-1.2216797,1.6308594-2.3105469C49.7841797,52.8173828,48.7548828,52.0800781,47.6601563,52.2744141z"/><path d="M62.2880859,5.4707041c-0.4511719-0.3808594-1.0488281-0.5410156-1.6279297-0.4414063l-22,3.7929688   c-1.0888672,0.1875-1.8183594,1.2216797-1.6308594,2.3105469c0.1875,1.0878906,1.2138672,1.8261719,2.3105469,1.6308594   L59,9.3740244v32.9414063l-25,4.3105469V12.000001c0-0.130188-0.0144043-0.2570801-0.0383911-0.3809204   c-0.0084229-0.043457-0.0234375-0.0840454-0.0346069-0.1264648c-0.0206909-0.0783081-0.0419312-0.1560059-0.0715942-0.2304688   c-0.0186768-0.046936-0.0422363-0.0906372-0.06427-0.1357422c-0.0320435-0.0656738-0.0650635-0.130127-0.1040039-0.1916504   c-0.0274048-0.043396-0.0575562-0.0839233-0.0881958-0.125c-0.0427856-0.0574341-0.0874634-0.1126099-0.1361694-0.1651001   c-0.034729-0.0374756-0.0704346-0.0730591-0.1079102-0.1077881c-0.0526733-0.0488281-0.1079712-0.093811-0.1658325-0.1368408   c-0.0409546-0.0305176-0.081604-0.0604248-0.1248779-0.0877686c-0.0605469-0.038208-0.1241455-0.0708618-0.1890259-0.1026001   c-0.0473022-0.0231934-0.0933838-0.0473022-0.1427002-0.0667725c-0.0669556-0.0263672-0.137085-0.0452271-0.2075806-0.0644531   c-0.0516357-0.0140991-0.1015625-0.031189-0.1547852-0.0411377c-0.010376-0.0019531-0.0197754-0.0062256-0.0302124-0.0079956l-29-5   C2.7578125,4.9287119,2.1621094,5.0898447,1.7119141,5.4707041C1.2607422,5.8505869,1,6.4101572,1,7.000001v37   c0,0.9736328,0.7011719,1.8066406,1.6611328,1.9707031l21.9990234,3.7919922   c1.0927734,0.1933594,2.1230469-0.5429688,2.3105469-1.6308594c0.1884766-1.0878906-0.5419922-2.1230469-1.6308594-2.3105469   L5,42.3144531V9.3740244l25,4.3105469V49c0,0.1448364,0.0171509,0.2854004,0.0463867,0.4215088   c0.0075073,0.0346069,0.0219727,0.0665894,0.031189,0.1005859c0.0273438,0.100708,0.0577393,0.199707,0.0997314,0.293457   c0.0185547,0.0414429,0.043335,0.0791016,0.0646973,0.1192017c0.043335,0.0812988,0.0883789,0.1608276,0.1421509,0.2349854   c0.0297852,0.0411377,0.0637817,0.0783691,0.0968018,0.1173096c0.0570068,0.0671997,0.1161499,0.1311646,0.1813965,0.1903076   c0.0178833,0.0161743,0.0310059,0.0363159,0.0495605,0.0519409c0.0285034,0.0240479,0.0610352,0.0413818,0.0906372,0.0636597   c0.0457764,0.0344849,0.0913696,0.0679321,0.1400757,0.0984497c0.0581055,0.036438,0.1181641,0.0673218,0.1793213,0.0973511   c0.0491333,0.0241699,0.0971069,0.0490723,0.1483765,0.0692139c0.0706787,0.027832,0.1434326,0.0477295,0.2166748,0.0672607   c0.0461426,0.0123291,0.0905151,0.0278931,0.1379395,0.0369263C31.74823,50.9857178,31.8734741,51,32,51   c0.1132813,0,0.2265625-0.0097656,0.3398438-0.0292969l29-5C62.2988281,45.8056641,63,44.9736328,63,44v-37   C63,6.4101572,62.7392578,5.8505869,62.2880859,5.4707041z"/><path d="M26.9707031,21.1328125c0.1875-1.0888672-0.5419922-2.1230469-1.6308594-2.3105469l-16-2.7587891   c-1.0996094-0.1972647-2.1230469,0.5429688-2.3105469,1.6308594c-0.1875,1.0888672,0.5419922,2.1230469,1.6308594,2.3105469   l16,2.7587891c0.1152344,0.0205078,0.2294922,0.0292969,0.3417969,0.0292969   C25.9580078,22.7929688,26.8027344,22.1064453,26.9707031,21.1328125z"/><path d="M19.6601563,30.9013672c0.1152344,0.0205078,0.2294922,0.0292969,0.3417969,0.0292969   c0.9560547,0,1.8007813-0.6865234,1.96875-1.6601563c0.1875-1.0888672-0.5419922-2.1230469-1.6308594-2.3105469l-11-1.8964844   c-1.0996094-0.1953125-2.1230469,0.5429688-2.3105469,1.6308594c-0.1875,1.0888672,0.5419922,2.1230469,1.6308594,2.3105469   L19.6601563,30.9013672z"/><path d="M9.6601563,38.1777344l14,2.4140625c0.1152344,0.0205078,0.2294922,0.0292969,0.3417969,0.0292969   c0.9560547,0,1.8007813-0.6865234,1.96875-1.6601563c0.1875-1.0888672-0.5419922-2.1230469-1.6308594-2.3105469l-14-2.4140625   c-1.0957031-0.1982422-2.1230469,0.5429688-2.3105469,1.6308594C7.8417969,36.9560547,8.5712891,37.9902344,9.6601563,38.1777344z"/><path d="M56.9707031,17.6943359c-0.1884766-1.0878906-1.2158203-1.8271475-2.3105469-1.6308594l-16,2.7587891   c-1.0888672,0.1875-1.8183594,1.2216797-1.6308594,2.3105469c0.1679688,0.9736328,1.0126953,1.6601563,1.96875,1.6601563   c0.1123047,0,0.2265625-0.0087891,0.3417969-0.0292969l16-2.7587891   C56.4287109,19.8173828,57.1582031,18.7832031,56.9707031,17.6943359z"/><path d="M56.9707031,26.6943359c-0.1884766-1.0878906-1.2158203-1.8251953-2.3105469-1.6308594l-11,1.8964844   c-1.0888672,0.1875-1.8183594,1.2216797-1.6308594,2.3105469c0.1679688,0.9736328,1.0126953,1.6601563,1.96875,1.6601563   c0.1123047,0,0.2265625-0.0087891,0.3417969-0.0292969l11-1.8964844   C56.4287109,28.8173828,57.1582031,27.7832031,56.9707031,26.6943359z"/><path d="M53.6601563,34.2363281l-14,2.4140625c-1.0888672,0.1875-1.8183594,1.2216797-1.6308594,2.3105469   c0.1679688,0.9736328,1.0126953,1.6601563,1.96875,1.6601563c0.1123047,0,0.2265625-0.0087891,0.3417969-0.0292969l14-2.4140625   c1.0888672-0.1875,1.8183594-1.2216797,1.6308594-2.3105469C55.7832031,34.7792969,54.7568359,34.0380859,53.6601563,34.2363281z"/></g></svg>